Motion_sv07_l
version=1
nRows=8
nColumns=43
inDegrees=yes
endheader
time	pelvis_tilt	pelvis_list	pelvis_rotation	pelvis_tx	pelvis_ty	pelvis_tz	hip_flexion_r	hip_adduction_r	hip_rotation_r	knee_angle_r	ankle_angle_r	subtalar_angle_r	mtp_angle_r	hip_flexion_l	hip_adduction_l	hip_rotation_l	knee_angle_l	ankle_angle_l	subtalar_angle_l	mtp_angle_l	lumbar_extension	lumbar_bending	lumbar_rotation	neck_flexion	neck_lateral_bending	neck_rotation	arm_flex_r	arm_add_r	arm_rot_r	elbow_flex_r	pro_sup_r	wrist_flex_r	wrist_dev_r	hand_finger_flex_r	arm_flex_l	arm_add_l	arm_rot_l	elbow_flex_l	pro_sup_l	wrist_flex_l	wrist_dev_l	hand_finger_flex_l
      1.43750000	      4.37400085	     12.58796394	     87.68599166	     -0.00229207	      0.95105464	      0.31203722	     -1.00322610	     -0.57059247	     -3.09027128	    -27.07698169	     15.57438493	     -2.88375076	     -5.20050314	     -0.05760459	    -12.56713757	     -5.47925582	    -23.99518536	      9.71805264	     20.10019768	     13.23227730	    -44.97343193	      7.78022100	      0.46945980	    -17.88119044	     -8.14861261	     -4.25361683	     -3.51298295	    -24.44860291	     -3.14657039	     77.22085670	    136.10142103	     27.40965668	      4.17758710	     12.07897456	    -21.80714152	    -14.54238453	     -0.12266903	    103.33779717	    116.87793352	    -26.40342709	    -22.58892612	     26.22653749
      1.44000000	      4.37625799	     12.57926865	     87.68847239	     -0.00266086	      0.95109112	      0.31138595	     -1.06579630	     -0.58994569	     -3.07394886	    -27.02589613	     15.59399414	     -2.88268774	     -5.19042977	     -0.16024761	    -12.54157548	     -5.50877174	    -23.87903451	      9.79558354	     20.12115294	     13.23001187	    -44.90504408	      7.81147835	      0.44310183	    -17.93487162	     -8.26039362	     -4.22805563	     -3.64462432	    -24.32725810	     -3.18136702	     76.91058279	    136.19459991	     27.35216550	      4.20356577	     12.06065285	    -21.78342951	    -14.51153979	     -0.12694893	    103.26398117	    116.93080065	    -26.38096391	    -22.55692185	     26.23365632
      1.44250000	      4.37543875	     12.58582410	     87.69343157	     -0.00303045	      0.95115935	      0.31076564	     -1.14443239	     -0.61697103	     -3.06455007	    -26.96815679	     15.61026058	     -2.87939148	     -5.17998588	     -0.27435543	    -12.50903375	     -5.54223056	    -23.76853511	      9.86839420	     20.14571424	     13.22543246	    -44.85370139	      7.83861319	      0.41424169	    -18.01599382	     -8.38028986	     -4.21447770	     -3.77048852	    -24.21640228	     -3.20452914	     76.59866449	    136.30624466	     27.27599305	      4.22148516	     12.04314038	    -21.75261058	    -14.47753451	     -0.13037734	    103.18930935	    116.99851077	    -26.35385430	    -22.53721803	     26.24255134
      1.44500000	      4.38621847	     12.58085230	     87.69535639	     -0.00346436	      0.95114181	      0.31042396	     -1.15818502	     -0.63503127	     -3.05767667	    -26.96177693	     15.60926387	     -2.87762400	     -5.17874310	     -0.30027072	    -12.49185115	     -5.54920102	    -23.75739634	      9.87719191	     20.14897280	     13.22431254	    -44.85357119	      7.86166570	      0.41375448	    -18.01166740	     -8.40847430	     -4.21146943	     -3.91677050	    -24.20110023	     -3.16408752	     76.43163464	    136.34686541	     27.27016989	      4.23217867	     12.04259193	    -21.69736794	    -14.47106454	     -0.15668159	    103.22287192	    117.00748350	    -26.35751960	    -22.54365430	     26.24118450
      1.44750000	      4.29030465	     12.73716724	     87.73376254	     -0.00395063	      0.95158463	      0.30918051	     -1.56294717	     -0.77282232	     -3.10376925	    -26.69241243	     15.64848511	     -2.85586769	     -5.13795180	     -0.77550440	    -12.34047264	     -5.68069967	    -23.33128746	     10.05820245	     20.24417418	     13.18646419	    -44.80788304	      7.87267856	      0.26624009	    -18.53012686	     -8.83602620	     -4.24257239	     -4.01340440	    -24.03654132	     -3.16609056	     75.95034445	    136.79692858	     26.85423651	      4.17509476	     12.00544834	    -21.63706624	    -14.39372438	     -0.15015972	    102.93017761	    117.33167712	    -26.23940141	    -22.58607603	     26.27548711
      1.45000000	      4.30063828	     12.76391956	     87.71883337	     -0.00425851	      0.95164213	      0.30863591	     -1.62365957	     -0.78846371	     -3.11288221	    -26.71609210	     15.64064137	     -2.84077509	     -5.13379359	     -0.84865942	    -12.33347735	     -5.69176947	    -23.34792559	     10.04629618	     20.24931085	     13.17793385	    -44.80955750	      7.87633799	      0.25554410	    -18.46338963	     -8.84079900	     -4.25916449	     -4.13484259	    -23.93570875	     -3.19835345	     75.64694807	    136.85052775	     26.85128692	      4.18132476	     12.01934294	    -21.62706839	    -14.35234118	     -0.15373952	    102.93586848	    117.35860468	    -26.23780155	    -22.60261236	     26.27345217
      1.45250000	      4.30167417	     12.80102098	     87.72906089	     -0.00454376	      0.95179996	      0.30821198	     -1.69588984	     -0.81474766	     -3.11809777	    -26.70098112	     15.63596943	     -2.82030739	     -5.12737267	     -0.94506407	    -12.30597872	     -5.71620278	    -23.29993424	     10.05620570	     20.25449213	     13.16904507	    -44.82992767	      7.87994922	      0.22528221	    -18.41772242	     -8.87500880	     -4.27496766	     -4.23593434	    -23.79346944	     -3.24004684	     75.32574465	    136.93828255	     26.81055947	      4.18313628	     12.02905167	    -21.59461961	    -14.31610874	     -0.16671592	    102.90928834	    117.39962711	    -26.23419968	    -22.62110554	     26.27024987
      1.45500000	      4.28270136	     12.84565395	     87.74745062	     -0.00486521	      0.95195930	      0.30766891	     -1.80170639	     -0.85605165	     -3.12686026	    -26.66658446	     15.63240347	     -2.79894697	     -5.11929042	     -1.07969276	    -12.26320188	     -5.74475033	    -23.20095718	     10.07614430	     20.26365865	     13.15903130	    -44.83972801	      7.87777495	      0.17368457	    -18.39610981	     -8.94199741	     -4.28837066	     -4.34166202	    -23.65509140	     -3.28682814	     74.99306767	    137.06073196	     26.73047805	      4.17866499	     12.03296287	    -21.56441381	    -14.28136641	     -0.17462544	    102.86694925	    117.45461141	    -26.23026642	    -22.64635299	     26.26573131
